<svg width="185" height="25" viewBox="0 0 185 25" fill="none" xmlns="http://www.w3.org/2000/svg">
<path d="M13.8 2.6001C13.8 0.600098 11.9 0.100098 10.4 0.100098V0.400098C11.3 0.400098 12 0.700098 12 1.4001C12 1.8001 11.7 2.4001 10.8 2.4001C10.1 2.4001 8.6 2.0001 7.5 1.6001C6.2 1.1001 5 0.700098 4 0.700098C2 0.700098 0.6 2.2001 0.6 3.9001C0.6 5.4001 1.7 5.9001 2.1 6.1001L2.2 5.9001C2 5.7001 1.7 5.5001 1.7 4.9001C1.7 4.5001 2.1 3.8001 3.1 3.8001C4 3.8001 5.2 4.2001 6.8 4.7001C8.2 5.1001 9.7 5.4001 10.5 5.5001V8.6001L9 9.9001V10.0001L10.5 11.3001V15.6001C9.7 16.1001 8.8 16.2001 8 16.2001C6.5 16.2001 5.2 15.8001 4.1 14.6001L8.2 12.6001V5.7001L3.2 7.9001C3.6 6.6001 4.7 5.7001 5.8 5.1001L5.7 4.8001C2.7 5.6001 0 8.4001 0 11.8001C0 15.8001 3.3 18.8001 7 18.8001C11 18.8001 13.6 15.6001 13.6 12.3001H13.4C12.8 13.6001 11.9 14.8001 10.8 15.4001V11.3001L12.4 10.0001V9.9001L10.8 8.6001V5.5001C12.3 5.5001 13.8 4.5001 13.8 2.6001ZM5.1 13.6001L3.9 14.2001C3.2 13.3001 2.8 12.1001 2.8 10.4001C2.8 9.7001 2.8 8.9001 3 8.3001L5.1 7.4001V13.6001ZM15.7 15.9001L14.4 16.9001L14.6 17.1001L15.2 16.6001L17.4 18.6001L20.4 16.6001L20.3 16.4001L19.5 16.9001L18.5 15.9001V9.1001L19.3 8.5001L21 9.9001V16.0001C21 19.8001 20.2 20.4001 18.5 21.0001V21.3001C21.3 21.4001 23.9 20.5001 23.9 15.6001V9.0001L24.8 8.3001L24.6 8.1001L23.8 8.7001L21.3 6.6001L18.5 8.7001V0.500098H18.3L14.8 2.9001V3.1001C15.2 3.3001 15.8 3.5001 15.8 4.6001L15.7 15.9001ZM34 14.8001L31.5 16.7001L29 14.7001V13.5001L33.7 10.3001V10.2001L31.3 6.6001L26.1 9.4001V16.0001L25.1 16.8001L25.3 17.0001L26.2 16.3001L29.6 18.8001L34.1 15.2001L34 14.8001ZM29 13.1001V8.2001L29.2 8.1001L31.4 11.6001L29 13.1001ZM53.1 1.7001C53.1 1.4001 53 1.1001 52.9 0.800098H52.7C52.4 1.6001 52 2.0001 51 2.0001C50.1 2.0001 49.5 1.5001 49.1 1.1001L46.2 4.4001L46.4 4.6001L47.4 3.7001C48 4.2001 48.5 4.6001 49.9 4.7001V13.0001L44 2.9001C43.5 2.1001 42.8 1.0001 41.4 1.0001C39.8 1.0001 38.4 2.4001 38.6 4.6001H38.9C39 4.0001 39.3 3.3001 40 3.3001C40.5 3.3001 41 3.8001 41.3 4.3001V7.6001C39.5 7.6001 38.3 8.4001 38.3 9.9001C38.3 10.7001 38.7 11.9001 39.9 12.2001V12.0001C39.7 11.8001 39.6 11.6001 39.6 11.3001C39.6 10.8001 40 10.4001 40.7 10.4001H41.2V14.6001C39.1 14.6001 37.4 15.8001 37.4 17.8001C37.4 19.7001 39 20.6001 40.8 20.5001V20.3001C39.7 20.2001 39.2 19.7001 39.2 19.0001C39.2 18.1001 39.8 17.7001 40.6 17.7001C41.4 17.7001 42.1 18.2001 42.6 18.8001L45.5 15.6001L45.3 15.4001L44.6 16.2001C43.5 15.2001 42.9 14.9001 41.6 14.7001V4.7001L49.6 18.7001H50.2V4.7001C51.7 4.6001 53.1 3.4001 53.1 1.7001ZM60.4 14.8001L57.9 16.7001L55.4 14.7001V13.5001L60.1 10.3001V10.2001L57.7 6.6001L52.5 9.4001V16.0001L51.5 16.8001L51.7 17.0001L52.6 16.3001L56 18.8001L60.5 15.2001L60.4 14.8001ZM55.4 13.1001V8.2001L55.6 8.1001L57.8 11.6001L55.4 13.1001ZM76.7 7.7001L76 8.2001L74.1 6.6001L71.9 8.6001L72.8 9.5001V17.0001L70.4 15.5001V9.3001L71.2 8.8001L68.9 6.6001L66.7 8.6001L67.6 9.5001V16.7001L67.3 16.9001L65.2 15.4001V9.4001C65.2 8.0001 64.5 7.6001 63.7 7.1001C63 6.6001 62.6 6.3001 62.6 5.6001C62.6 5.0001 63.2 4.7001 63.5 4.5001V4.3001C62.7 4.3001 60.6 5.1001 60.6 7.0001C60.6 8.0001 61.1 8.4001 61.6 8.9001C62.1 9.4001 62.6 9.8001 62.6 10.7001V16.5001L61.5 17.3001L61.7 17.5001L62.7 16.7001L65 18.7001L67.5 17.0001L70.3 18.7001L75.6 15.6001V8.9001L76.9 7.9001L76.7 7.7001ZM95.3 2.2001L94.3 3.1001L92.1 1.1001L88.8 3.5001V1.3001H88.5L88.6 17.5001C88.3 17.5001 87.4 17.3001 86.7 17.1001L86.5 3.6001C86.5 2.6001 85.8 1.2001 84 1.2001C82.2 1.2001 81 2.6001 81 4.0001H81.3C81.4 3.4001 81.7 2.9001 82.3 2.9001C82.9 2.9001 83.4 3.3001 83.4 4.6001V8.5001C81.6 8.6001 80.5 9.6001 80.5 10.9001C80.5 11.7001 80.9 12.9001 82.1 12.9001V12.7001C81.7 12.5001 81.6 12.2001 81.6 12.0001C81.6 11.4001 82.1 11.2001 82.9 11.2001H83.3V17.4001C81.8 17.9001 81.2 19.0001 81.2 20.2001C81.2 21.9001 82.5 23.1001 84.5 23.1001C85.9 23.1001 87.1 22.9001 88.3 22.6001C89.3 22.4001 90.6 22.1001 91.2 22.1001C92 22.1001 92.3 22.5001 92.3 23.0001C92.3 23.7001 92 24.0001 91.6 24.1001V24.3001C93.2 24.0001 94.2 23.0001 94.2 21.5001C94.2 20.0001 92.7 19.1001 91.1 19.1001C90.3 19.1001 88.6 19.4001 87.4 19.6001C86 19.9001 84.6 20.1001 84.2 20.1001C83.5 20.1001 82.7 19.8001 82.7 18.8001C82.7 18.0001 83.4 17.3001 85.1 17.3001C86 17.3001 87.1 17.4001 88.2 17.7001C89.4 18.0001 90.5 18.3001 91.5 18.3001C93 18.3001 94.3 17.8001 94.3 15.7001V3.4001L95.5 2.4001L95.3 2.2001ZM91.2 8.3001C90.9 8.6001 90.5 8.9001 90 8.9001C89.5 8.9001 89 8.6001 88.8 8.3001V3.9001L89.8 3.2001L91.2 4.5001V8.3001ZM91.2 11.3001C91 11.1001 90.5 10.8001 90 10.8001C89.5 10.8001 89 11.1001 88.8 11.3001V8.7001C89 8.9001 89.5 9.2001 90 9.2001C90.5 9.2001 91 8.9001 91.2 8.7001V11.3001ZM91.2 16.0001C91.2 16.8001 90.7 17.6001 89.6 17.6001H88.8V11.7001C89 11.5001 89.5 11.2001 90 11.2001C90.5 11.2001 90.9 11.5001 91.2 11.7001V16.0001ZM104.9 8.9001L101.7 6.6001L96.8 9.4001V15.9001L95.8 16.7001L95.9 16.9001L96.7 16.3001L99.9 18.7001L104.9 15.7001V8.9001ZM99.5 15.2001V8.0001L102 9.8001V16.9001L99.5 15.2001ZM114.4 6.8001H114.2C113.9 7.0001 113.6 7.2001 113.3 7.2001C112.9 7.2001 112.4 7.0001 112.2 6.7001H112L110.3 8.6001L108.6 6.7001L105.6 8.7001L105.7 8.9001L106.5 8.4001L107.5 9.5001V15.8001L106.2 16.8001L106.4 17.0001L107 16.5001L109.4 18.5001L112.5 16.4001L112.4 16.2001L111.5 16.7001L110.3 15.7001V8.7001C110.8 9.2001 111.4 9.7001 112.1 9.7001C113.5 9.8001 114.3 8.4001 114.4 6.8001ZM126.4 16.4001L123 18.7001L118.4 11.7001L121.7 6.6001H121.9C122.3 7.0001 122.9 7.4001 123.6 7.4001C124.3 7.4001 124.8 7.0001 125.1 6.6001H125.3C125.2 8.6001 123.8 9.8001 122.8 9.8001C121.8 9.8001 121.3 9.3001 120.7 9.0001L120.4 9.5001L125.4 16.9001L126.4 16.3001V16.4001ZM115.4 15.9001L114.1 16.9001L114.3 17.1001L114.9 16.6001L117.1 18.6001L120.1 16.6001L119.9 16.4001L119.1 16.9001L118.1 15.9001V0.500098H118L114.4 2.9001V3.1001C114.8 3.3001 115.4 3.4001 115.4 4.6001V15.9001ZM143 2.6001C143 0.600098 141.1 0.100098 139.6 0.100098V0.400098C140.5 0.400098 141.2 0.700098 141.2 1.4001C141.2 1.8001 140.9 2.4001 140 2.4001C139.3 2.4001 137.8 2.0001 136.7 1.6001C135.4 1.2001 134.2 0.800098 133.2 0.800098C131.2 0.800098 129.8 2.3001 129.8 4.0001C129.8 5.5001 130.9 6.0001 131.3 6.2001L131.4 6.0001C131.1 5.8001 130.8 5.6001 130.8 5.0001C130.8 4.6001 131.2 3.9001 132.2 3.9001C133.1 3.9001 134.3 4.3001 135.9 4.8001C137.3 5.2001 138.8 5.5001 139.6 5.6001V8.7001L138.1 10.0001V10.1001L139.6 11.4001V15.7001C138.8 16.2001 137.9 16.3001 137.1 16.3001C135.6 16.3001 134.3 15.9001 133.2 14.7001L137.3 12.7001V5.7001L132.3 7.9001C132.8 6.6001 133.9 5.7001 134.9 5.0001L134.8 4.8001C131.8 5.6001 129.1 8.3001 129.1 11.7001C129.1 15.7001 132.4 18.7001 136.1 18.7001C140.1 18.7001 142.7 15.5001 142.7 12.2001H142.5C141.9 13.5001 141 14.7001 139.9 15.3001V11.2001L141.5 9.9001V9.8001L140 8.5001V5.5001C141.5 5.5001 143 4.5001 143 2.6001ZM134.3 13.6001L133.1 14.2001C132.4 13.3001 132 12.1001 132 10.4001C132 9.7001 132.1 8.9001 132.3 8.3001L134.4 7.4001L134.3 13.6001ZM146.5 1.6001H146.4L144.4 3.3001V3.4001L146.1 5.3001H146.3L148.3 3.6001V3.5001L146.5 1.6001ZM149.5 16.4001L148.7 16.9001L147.7 15.9001V9.0001L148.7 8.3001L148.5 8.1001L147.8 8.7001L146 6.6001L143.1 8.6001L143.3 8.9001L144 8.4001L144.9 9.5001V16.0001L143.6 17.0001L143.7 17.2001L144.4 16.7001L146.6 18.7001L149.6 16.7001L149.5 16.4001ZM166.2 16.3001L165.5 16.8001L164.4 15.8001V9.0001L165.4 8.2001L165.2 8.0001L164.4 8.7001L162.1 6.6001L159.1 8.7001L156.8 6.6001L154 8.7001L152.2 6.6001L149.3 8.6001L149.4 8.9001L150.1 8.4001L151.1 9.5001V16.0001L150.3 16.8001L152.6 18.7001L154.8 16.7001L153.9 15.8001V9.0001L154.8 8.4001L156.3 9.8001V15.8001L155.5 16.6001L157.8 18.5001L160 16.5001L159.1 15.6001V9.0001L159.9 8.5001L161.5 9.9001V15.9001L160.8 16.6001L163.1 18.7001L166.2 16.6001V16.3001ZM174.9 14.8001L172.4 16.7001L169.9 14.7001V13.5001L174.6 10.3001V10.2001L172.2 6.6001L167 9.4001V16.2001L170.5 18.7001L175 15.1001L174.9 14.8001ZM169.9 13.1001V8.2001L170.1 8.1001L172.3 11.6001L169.9 13.1001ZM184 12.2001L182.1 10.7001C183.4 9.6001 183.9 8.1001 183.9 7.1001V6.5001H183.7C183.5 7.0001 183.1 7.5001 182.3 7.5001C181.5 7.5001 181 7.1001 180.5 6.5001L176 9.0001V12.6001L177.7 13.9001C176 15.4001 175.7 16.4001 175.7 17.2001C175.7 18.2001 176.2 18.9001 177 19.2001L177.1 19.0001C176.9 18.8001 176.7 18.7001 176.7 18.2001C176.7 17.9001 177.1 17.4001 177.9 17.4001C178.9 17.4001 179.5 18.1001 179.8 18.4001L184.1 15.8001V12.2001H184ZM182.9 9.2001C182.2 10.4001 180.7 11.6001 179.8 12.2001L178.7 11.3001V7.8001C179.1 8.8001 180.2 9.6001 181.3 9.6001C182 9.6001 182.4 9.5001 182.9 9.2001ZM181.2 17.2001C180.7 16.1001 179.5 15.3001 178.3 15.3001C178 15.3001 177.2 15.3001 176.4 15.8001C176.9 15.0001 178.2 13.6001 179.9 12.6001L181.1 13.6001L181.2 17.2001Z" fill="#95928E"/>
</svg>
