<svg width="97" height="31" viewBox="0 0 97 31" fill="none" xmlns="http://www.w3.org/2000/svg">
<path d="M30.4965 6.40039C25.8965 6.40039 22.3965 9.70039 22.3965 14.4004C22.3965 19.1004 25.8965 22.4004 30.4965 22.4004C32.6965 22.4004 34.3965 21.4004 35.0965 20.6004V22.2004H38.6965V6.60039H35.0965V8.20039C34.3965 7.40039 32.5965 6.40039 30.4965 6.40039ZM30.5965 19.1004C27.8965 19.1004 25.8965 17.0004 25.8965 14.4004C25.8965 11.8004 27.9965 9.70039 30.5965 9.70039C33.1965 9.70039 35.1965 11.8004 35.1965 14.4004C35.1965 17.0004 33.1965 19.1004 30.5965 19.1004ZM61.4965 6.40039C59.3965 6.40039 57.7965 7.20039 56.7965 8.20039V6.60039H53.2965V30.4004L56.7965 30.0004V20.5004C57.7965 21.6004 59.4965 22.3004 61.4965 22.3004C66.2965 22.3004 69.4965 19.2004 69.4965 14.3004C69.4965 9.50039 66.2965 6.40039 61.4965 6.40039ZM61.3965 19.1004C58.5965 19.1004 56.7965 17.1004 56.7965 14.4004C56.7965 11.7004 58.5965 9.70039 61.3965 9.70039C64.1965 9.70039 66.0965 11.7004 66.0965 14.4004C65.9965 17.1004 64.1965 19.1004 61.3965 19.1004ZM96.4965 6.40039C94.2965 6.40039 93.0965 7.20039 92.3965 8.20039V6.60039H88.8965V22.2004H92.3965V13.6004C92.3965 11.3004 93.9965 9.70039 96.1965 9.70039H96.4965V6.40039ZM78.8965 6.40039C74.2965 6.40039 70.6965 10.0004 70.6965 14.4004C70.6965 18.8004 74.2965 22.4004 78.8965 22.4004C82.6965 22.4004 85.7965 20.3004 86.7965 17.5004H82.5965C82.0965 18.5004 80.7965 19.2004 78.8965 19.2004C76.5965 19.2004 74.7965 17.6004 74.3965 15.6004H86.8965C86.9965 15.2004 86.9965 14.8004 86.9965 14.4004C86.9965 10.0004 83.3965 6.40039 78.8965 6.40039ZM74.5965 12.5004C75.0965 10.9004 76.7965 9.60039 78.8965 9.60039C80.8965 9.60039 82.6965 10.9004 83.1965 12.5004H74.5965ZM46.1965 9.50039C45.4965 9.50039 44.6965 9.80039 44.6965 10.7004C44.6965 11.7004 45.6965 12.0004 47.5965 12.7004C50.1965 13.7004 51.4965 14.9004 51.4965 17.3004C51.4965 19.8004 49.3965 22.4004 45.7965 22.4004C42.1965 22.4004 40.2965 19.7004 40.1965 17.5004H43.5965C43.7965 18.5004 44.5965 19.3004 45.7965 19.3004C47.0965 19.3004 47.8965 18.4004 47.8965 17.4004C47.8965 16.7004 47.5965 15.9004 45.3965 15.3004C42.9965 14.7004 41.2965 13.4004 41.2965 10.8004C41.2965 8.40039 43.3965 6.50039 46.0965 6.50039C48.4965 6.50039 49.9965 8.20039 50.6965 9.30039L47.7965 10.6004C47.3965 9.80039 46.7965 9.50039 46.1965 9.50039Z" fill="#95928E"/>
<path d="M11.7961 0C5.39609 0 0.496094 5 0.496094 11.2C0.496094 17.4 5.39609 22.4 11.7961 22.4C15.8961 22.4 19.6961 20.2 21.3961 17.1L18.0961 15.3C16.7961 17.6 14.5961 18.9 11.7961 18.9C9.79609 18.9 7.79609 18.1 6.49609 16.7C5.09609 15.2 4.29609 13.3 4.29609 11.3C4.29609 9.3 5.09609 7.4 6.49609 5.9C7.79609 4.5 9.69609 3.7 11.7961 3.7C13.9961 3.7 15.2961 4.4 16.1961 5.1C17.1961 5.8 18.1961 6.5 19.8961 6.5C22.9961 6.5 24.3961 4 24.6961 2.7L21.1961 2C21.1961 2.1 20.8961 3.1 19.8961 3.1C19.3961 3.1 19.0961 2.9 18.3961 2.4C17.0961 1.2 15.3961 0 11.7961 0Z" fill="#95928E"/>
</svg>
