<svg width="188" height="25" viewBox="0 0 188 25" fill="none" xmlns="http://www.w3.org/2000/svg">
<path d="M9.66916 15.2088H10.2311C9.65213 17.1921 8.20462 18.1838 5.8886 18.1838C4.39916 18.1838 3.14421 17.6781 2.12768 16.6642C1.10983 15.6516 0.601562 14.3102 0.601562 12.6413C0.601562 10.9291 1.15044 9.54189 2.24819 8.47689C3.34726 7.41319 4.64543 6.88135 6.14404 6.88135C7.04661 6.88135 7.87713 7.07784 8.63429 7.47476C9.39276 7.87037 9.77134 8.35375 9.77134 8.9249C9.77134 9.13711 9.7006 9.33754 9.56044 9.52486C9.42027 9.71219 9.21853 9.8052 8.95392 9.8052C8.39194 9.8052 8.04742 9.4777 7.92036 8.82272C7.81687 8.32886 7.65967 7.98303 7.44746 7.78785C7.22607 7.59135 6.79509 7.49441 6.15714 7.49441C5.01616 7.49441 4.15813 7.89002 3.58305 8.68124C3.00797 9.47377 2.72109 10.6658 2.72109 12.2575C2.72109 13.9015 3.03024 15.1865 3.64724 16.1153C4.26423 17.0428 5.19955 17.5078 6.45057 17.5078C8.1365 17.5078 9.20936 16.7415 9.66916 15.2088Z" fill="#95928E"/>
<path d="M18.1639 9.02676C18.6748 8.31152 19.2473 7.77443 19.8826 7.41681C20.5166 7.05919 21.2122 6.88103 21.9707 6.88103C22.83 6.88103 23.5439 7.05919 24.1099 7.41681C24.6758 7.77443 25.0439 8.21589 25.2142 8.73857C25.3858 9.26256 25.4709 10.1114 25.4709 11.2865V14.1736C25.4709 15.3998 25.4932 16.1451 25.5403 16.4084C25.5875 16.673 25.725 16.8669 25.9556 16.9901C26.1848 17.1132 26.6106 17.1748 27.2328 17.1748V17.7629H21.8305V17.1748H22.0729C22.6938 17.1748 23.0959 17.0857 23.2793 16.9062C23.4627 16.7281 23.5688 16.5172 23.599 16.2748C23.6291 16.0325 23.6435 15.3316 23.6435 14.1736V11.031C23.6435 10.1625 23.5924 9.52062 23.4902 9.10274C23.3881 8.68486 23.1483 8.34034 22.7684 8.06786C22.3899 7.79539 21.9157 7.65915 21.3445 7.65915C20.6804 7.65915 20.0843 7.85303 19.5564 8.24078C19.0285 8.62853 18.5648 9.20885 18.1639 9.98435V14.1736C18.1639 15.3487 18.1836 16.0718 18.2215 16.3442C18.2608 16.6167 18.3905 16.8237 18.6119 16.9639C18.8333 17.1053 19.2381 17.1748 19.8249 17.1748V17.7629H14.5117V17.1748H14.7803C15.3933 17.1748 15.7902 17.0883 15.9736 16.9128C16.157 16.7385 16.2631 16.5303 16.2933 16.2879C16.3234 16.0443 16.3378 15.3395 16.3378 14.1736V3.75152C16.3378 2.69568 16.2383 2.0276 16.0378 1.74596C15.8374 1.46562 15.3593 1.32415 14.6008 1.32415V0.737282C15.9212 0.737282 17.019 0.557817 17.8967 0.200195H18.1639V9.02676Z" fill="#95928E"/>
<path d="M38.9602 11.3772L37.5678 11.9391C35.3709 12.8325 34.2732 13.9565 34.2732 15.311C34.2732 15.8468 34.4133 16.2791 34.6937 16.6066C34.9753 16.9354 35.3408 17.0991 35.7927 17.0991C36.1923 17.0991 36.656 16.9668 37.1839 16.7022C37.7118 16.4389 38.304 16.0433 38.9602 15.5153V11.3772ZM42.6635 15.8468H43.1364C43.0604 17.3035 42.3439 18.0305 40.9907 18.0305C40.4117 18.0305 39.9532 17.8772 39.6179 17.5707C39.2812 17.2642 39.0624 16.8096 38.9602 16.2044C38.1088 16.8096 37.332 17.2642 36.6285 17.5707C35.9264 17.8772 35.2989 18.0305 34.7448 18.0305C34.0387 18.0305 33.4296 17.8261 32.9187 17.4174C32.4078 17.0087 32.1523 16.4677 32.1523 15.7957C32.1523 14.9193 32.5807 14.153 33.4361 13.4967C34.2915 12.8417 35.4731 12.2024 36.9796 11.5815L38.9602 10.7759V10.265C38.9602 9.54189 38.9131 9.01791 38.8188 8.69434C38.7258 8.37078 38.4834 8.08128 38.0917 7.82583C37.7001 7.57039 37.1839 7.44332 36.546 7.44332C35.2688 7.44332 34.5574 7.86906 34.4133 8.72054C34.2771 9.58905 33.9195 10.0227 33.3405 10.0227C32.8204 10.0227 32.5611 9.77507 32.5611 9.28252C32.5611 8.79652 32.9056 8.27515 33.5959 7.71711C34.285 7.16037 35.3578 6.88135 36.8145 6.88135C37.8952 6.88135 38.7336 7.05033 39.331 7.39224C39.9257 7.73283 40.32 8.11927 40.5113 8.55418C40.7038 8.98778 40.7994 9.65193 40.7994 10.5466V14.7739C40.7994 15.7616 40.8505 16.3956 40.9527 16.6773C41.0549 16.9576 41.2763 17.0991 41.6169 17.0991C42.1788 17.0991 42.5273 16.6812 42.6635 15.8468Z" fill="#95928E"/>
<path d="M51.108 9.54975C51.3962 8.79259 51.8677 8.15857 52.5188 7.64768C53.1699 7.13679 53.8065 6.88135 54.4274 6.88135C54.9894 6.88135 55.4322 7.05557 55.7557 7.40402C56.0793 7.75379 56.2417 8.11141 56.2417 8.47689C56.2417 8.72447 56.1592 8.93669 55.9928 9.11615C55.8265 9.29431 55.6247 9.38339 55.3863 9.38339C54.9606 9.38339 54.637 9.06899 54.4156 8.4389C54.2624 8.01316 54.0318 7.80095 53.7253 7.80095C53.3598 7.80095 52.921 8.04984 52.4101 8.54763C51.8992 9.04542 51.5717 9.56285 51.4263 10.0999C51.2822 10.6357 51.2088 11.3719 51.2088 12.3085V14.1739C51.2088 15.2887 51.2246 15.9909 51.2547 16.2817C51.2835 16.5712 51.4053 16.7926 51.6175 16.9458C51.8311 17.0991 52.2096 17.1751 52.7546 17.1751H53.1122V17.7633H47.5566V17.1751H47.8252C48.3361 17.1751 48.7002 17.1056 48.9164 16.9642C49.1338 16.824 49.2635 16.6262 49.3068 16.3708C49.3487 16.1153 49.3696 15.383 49.3696 14.1739V11.2239C49.3696 10.0999 49.3552 9.39518 49.3251 9.1096C49.295 8.82403 49.1745 8.60265 48.9609 8.44545C48.7487 8.28825 48.3701 8.20835 47.8252 8.20835H47.5566V7.63458C48.357 7.54026 49.405 7.29006 50.6979 6.88135C50.9455 7.55336 51.0818 8.44283 51.108 9.54975Z" fill="#95928E"/>
<path d="M61.3909 1.5416C61.3909 1.17612 61.5219 0.860419 61.7812 0.597116C62.0406 0.332502 62.3537 0.200195 62.7205 0.200195C63.086 0.200195 63.3964 0.332502 63.6519 0.597116C63.9073 0.860419 64.0357 1.17612 64.0357 1.5416C64.0357 1.91625 63.9073 2.23589 63.6519 2.49919C63.3964 2.7638 63.086 2.89611 62.7205 2.89611C62.3537 2.89611 62.0406 2.7638 61.7812 2.49919C61.5219 2.23589 61.3909 1.91625 61.3909 1.5416ZM63.8562 6.88103V14.1736C63.8562 15.2884 63.8733 15.9906 63.9073 16.2814C63.9414 16.5709 64.0658 16.7923 64.278 16.9455C64.4903 17.0988 64.8702 17.1748 65.4151 17.1748H65.6836V17.7629H60.0508V17.1748H60.4844C61.0896 17.1748 61.4826 17.0883 61.666 16.9128C61.8494 16.7385 61.9555 16.5303 61.9856 16.2879C62.0144 16.0443 62.0301 15.3395 62.0301 14.1736V11.0061C62.0301 9.77999 61.9725 9.03069 61.8572 8.75822C61.7433 8.48574 61.59 8.31545 61.3974 8.24733C61.2062 8.17921 60.8721 8.14515 60.3953 8.14515H60.0508V7.55698C61.5664 7.40371 62.7415 7.1784 63.5759 6.88103H63.8562Z" fill="#95928E"/>
<path d="M76.7064 7.88918H73.552V14.2111C73.552 15.1818 73.594 15.8354 73.6791 16.1721C73.7643 16.5075 73.945 16.7786 74.2228 16.983C74.4992 17.1873 74.7952 17.2895 75.1096 17.2895C75.7227 17.2895 76.2558 16.9397 76.7064 16.2415L77.1152 16.4852C76.8519 17.0472 76.4615 17.4703 75.9467 17.7559C75.4319 18.0401 74.9105 18.1829 74.3826 18.1829C73.7695 18.1829 73.2311 18.0021 72.7661 17.6406C72.3023 17.279 72.0128 16.8546 71.8976 16.3699C71.7836 15.8839 71.726 15.0324 71.726 13.8155V7.88918H70.2051V7.301C70.9033 7.28397 71.5295 6.99054 72.0836 6.41939C72.6364 5.84956 72.9901 5.04917 73.1433 4.01953H73.552V7.301H76.7064V7.88918Z" fill="#95928E"/>
<path d="M87.2851 15.7825L89.7111 9.97147C90.0609 9.11999 90.2351 8.64709 90.2351 8.55409C90.2351 8.12835 89.7622 7.90696 88.8177 7.88993V7.30176H92.4948V7.88993C91.925 7.91482 91.5084 8.06678 91.2438 8.34318C90.9805 8.61959 90.6517 9.23003 90.26 10.1758L85.5992 21.4285C85.1564 22.5013 84.7647 23.231 84.4241 23.6187C84.0835 24.0065 83.7089 24.2003 83.3002 24.2003C82.746 24.2003 82.4696 23.9488 82.4696 23.4458C82.4696 22.8668 82.9124 22.3769 83.7979 21.9773C84.3167 21.7481 84.6638 21.5516 84.8381 21.3905C85.0136 21.228 85.1852 20.9346 85.3568 20.5089L86.3524 18.0173L82.4186 9.58896C82.0688 8.84752 81.7806 8.37986 81.55 8.18337C81.3208 7.98818 80.9291 7.88993 80.375 7.88993V7.30176H85.1773V7.88993C84.3337 7.91482 83.9132 8.09036 83.9132 8.41392C83.9132 8.54099 84.0783 8.95887 84.411 9.66494L87.2851 15.7825Z" fill="#95928E"/>
<path d="M97.7715 16.8031C97.7715 16.4285 97.9051 16.1075 98.1736 15.839C98.4409 15.5704 98.7631 15.4368 99.1378 15.4368C99.5203 15.4368 99.8465 15.5704 100.115 15.839C100.382 16.1075 100.517 16.4285 100.517 16.8031C100.517 17.1869 100.381 17.5131 100.108 17.7804C99.836 18.0489 99.5124 18.1825 99.1378 18.1825C98.754 18.1825 98.4304 18.0437 98.1671 17.7686C97.9025 17.4909 97.7715 17.1699 97.7715 16.8031ZM97.7715 7.95297C97.7715 7.58618 97.8999 7.26524 98.1605 6.98884C98.4199 6.71112 98.7461 6.57227 99.1378 6.57227C99.5203 6.57227 99.8465 6.70719 100.115 6.97574C100.382 7.24297 100.517 7.56915 100.517 7.95297C100.517 8.32762 100.381 8.64857 100.108 8.91711C99.836 9.18565 99.5124 9.31927 99.1378 9.31927C98.754 9.31927 98.4304 9.18303 98.1671 8.91056C97.9025 8.63809 97.7715 8.31845 97.7715 7.95297Z" fill="#95928E"/>
<path d="M128.175 18.1706H127.6L124.483 9.8693L121.303 18.1706H120.741L117.547 9.8693C117.182 8.92481 116.909 8.35759 116.731 8.17027C116.552 7.98294 116.194 7.88993 115.658 7.88993V7.30176H120.434V7.88993C119.899 7.88993 119.532 7.9384 119.337 8.03665C119.14 8.1349 119.042 8.30257 119.042 8.54099C119.042 8.71128 119.208 9.20907 119.541 10.0357L121.66 15.6423L124.905 7.30176H125.403L128.544 15.6423L130.843 9.70293C131.091 9.07284 131.214 8.69425 131.214 8.56719C131.214 8.14931 130.784 7.92399 129.924 7.88993V7.30176H133.322V7.88993C132.913 7.89779 132.591 7.9777 132.358 8.12573C132.123 8.27506 131.908 8.60911 131.712 9.12916L131.432 9.8693L128.175 18.1706Z" fill="#95928E"/>
<path d="M144.498 11.3772L143.106 11.9391C140.91 12.8325 139.811 13.9565 139.811 15.311C139.811 15.8468 139.951 16.2791 140.233 16.6066C140.513 16.9354 140.88 17.0991 141.33 17.0991C141.731 17.0991 142.195 16.9668 142.723 16.7022C143.251 16.4389 143.843 16.0433 144.498 15.5153V11.3772ZM148.203 15.8468H148.675C148.598 17.3035 147.883 18.0305 146.528 18.0305C145.951 18.0305 145.492 17.8772 145.156 17.5707C144.82 17.2642 144.6 16.8096 144.498 16.2044C143.647 16.8096 142.87 17.2642 142.168 17.5707C141.465 17.8772 140.837 18.0305 140.284 18.0305C139.576 18.0305 138.967 17.8261 138.458 17.4174C137.947 17.0087 137.691 16.4677 137.691 15.7957C137.691 14.9193 138.118 14.153 138.974 13.4967C139.831 12.8417 141.012 12.2024 142.519 11.5815L144.498 10.7759V10.265C144.498 9.54189 144.452 9.01791 144.358 8.69434C144.264 8.37078 144.021 8.08128 143.629 7.82583C143.238 7.57039 142.723 7.44332 142.084 7.44332C140.808 7.44332 140.097 7.86906 139.951 8.72054C139.815 9.58905 139.457 10.0227 138.878 10.0227C138.359 10.0227 138.1 9.77507 138.1 9.28252C138.1 8.79652 138.445 8.27515 139.134 7.71711C139.824 7.16037 140.897 6.88135 142.352 6.88135C143.434 6.88135 144.273 7.05033 144.869 7.39224C145.465 7.73283 145.859 8.11927 146.05 8.55418C146.242 8.98778 146.337 9.65193 146.337 10.5466V14.7739C146.337 15.7616 146.388 16.3956 146.49 16.6773C146.593 16.9576 146.814 17.0991 147.155 17.0991C147.717 17.0991 148.066 16.6812 148.203 15.8468Z" fill="#95928E"/>
<path d="M159.214 7.88918H156.059V14.2111C156.059 15.1818 156.102 15.8354 156.187 16.1721C156.272 16.5075 156.453 16.7786 156.729 16.983C157.007 17.1873 157.302 17.2895 157.617 17.2895C158.23 17.2895 158.762 16.9397 159.214 16.2415L159.623 16.4852C159.358 17.0472 158.969 17.4703 158.454 17.7559C157.938 18.0401 157.417 18.1829 156.889 18.1829C156.276 18.1829 155.738 18.0021 155.274 17.6406C154.81 17.279 154.521 16.8546 154.405 16.3699C154.29 15.8839 154.232 15.0324 154.232 13.8155V7.88918H152.713V7.301C153.411 7.28397 154.037 6.99054 154.59 6.41939C155.144 5.84956 155.498 5.04917 155.651 4.01953H156.059V7.301H159.214V7.88918Z" fill="#95928E"/>
<path d="M171.221 10.3292C171.245 10.134 171.259 9.95846 171.259 9.8052C171.259 9.05589 171.04 8.47558 170.601 8.06294C170.162 7.64899 169.624 7.44332 168.986 7.44332C167.436 7.44332 166.513 8.40484 166.214 10.3292H171.221ZM173.455 10.8401H166.163C166.129 11.3431 166.112 11.7164 166.112 11.964C166.112 13.8032 166.399 15.1852 166.974 16.1088C167.549 17.0323 168.407 17.4947 169.548 17.4947C171.097 17.4947 172.195 16.8004 172.842 15.4132H173.455C173.183 16.2817 172.642 16.9602 171.834 17.4502C171.025 17.9388 170.144 18.1838 169.19 18.1838C168.305 18.1838 167.468 17.9611 166.68 17.5144C165.893 17.0663 165.247 16.4349 164.745 15.6175C164.242 14.8001 163.992 13.8071 163.992 12.6413C163.992 10.9894 164.477 9.61656 165.448 8.52274C166.418 7.4276 167.631 6.88135 169.088 6.88135C170.458 6.88135 171.519 7.29792 172.269 8.13237C173.018 8.96682 173.413 9.86939 173.455 10.8401Z" fill="#95928E"/>
<mask id="mask0_2004_26074" style="mask-type:luminance" maskUnits="userSpaceOnUse" x="178" y="6" width="10" height="12">
<path d="M178.598 6.82959H187.291V17.8962H178.598V6.82959Z" fill="white"/>
</mask>
<g mask="url(#mask0_2004_26074)">
<path d="M182.157 9.55122C182.446 8.79406 182.917 8.16003 183.568 7.64914C184.219 7.13826 184.855 6.88281 185.478 6.88281C186.04 6.88281 186.482 7.05704 186.806 7.40549C187.129 7.75525 187.291 8.11287 187.291 8.47835C187.291 8.72594 187.208 8.93815 187.042 9.11762C186.875 9.29577 186.674 9.38485 186.435 9.38485C186.009 9.38485 185.686 9.07046 185.464 8.44036C185.311 8.01462 185.081 7.80241 184.774 7.80241C184.409 7.80241 183.97 8.0513 183.459 8.54909C182.948 9.04688 182.621 9.56432 182.475 10.1014C182.331 10.6372 182.258 11.3734 182.258 12.31V14.1754C182.258 15.2902 182.273 15.9923 182.304 16.2831C182.332 16.5726 182.454 16.794 182.668 16.9473C182.88 17.1006 183.258 17.1765 183.803 17.1765H184.161V17.7647H178.605V17.1765H178.874C179.385 17.1765 179.749 17.1071 179.965 16.9656C180.183 16.8255 180.312 16.6277 180.356 16.3722C180.398 16.1168 180.42 15.3845 180.42 14.1754V11.2254C180.42 10.1014 180.404 9.39664 180.374 9.11107C180.345 8.8255 180.223 8.60411 180.011 8.44691C179.798 8.28972 179.419 8.20981 178.874 8.20981H178.605V7.63604C179.406 7.54173 180.454 7.29152 181.748 6.88281C181.994 7.55483 182.131 8.44429 182.157 9.55122Z" fill="#95928E"/>
</g>
</svg>
